<svg width="877" height="157" viewBox="0 0 877 157" fill="none" xmlns="http://www.w3.org/2000/svg">
<path d="M595.975 65.7004V89.8004H531.575V65.7004H595.975ZM613.475 101.9H644.675V154.2H496.875V127.7H515.175V28.9004H496.875V2.40039H642.875V54.7004H611.675V28.9004H546.375V127.7H613.475V101.9Z" fill="#338BFF"/>
<path d="M397.356 154.2V127.7H409.856C419.523 127.7 427.956 125.6 435.156 121.4C442.423 117.2 448.056 111.367 452.056 103.9C456.123 96.3671 458.156 87.7004 458.156 77.9004C458.156 68.2337 456.123 59.7337 452.056 52.4004C448.056 45.0004 442.423 39.2337 435.156 35.1004C427.956 30.9671 419.523 28.9004 409.856 28.9004H397.356V2.40039H410.256C426.256 2.46706 440.29 5.70039 452.356 12.1004C464.423 18.5004 473.823 27.3671 480.556 38.7004C487.356 50.0337 490.756 63.1004 490.756 77.9004C490.756 92.9004 487.356 106.134 480.556 117.6C473.823 129.067 464.423 138.034 452.356 144.5C440.29 150.967 426.256 154.2 410.256 154.2H397.356ZM335.156 154.2V127.7H353.456V28.9004H335.156V2.40039H404.256V28.9004H384.656V127.7H404.256V154.2H335.156Z" fill="#338BFF"/>
<path d="M247.483 156.7C236.016 156.7 225.483 154.8 215.883 151C206.283 147.133 197.983 141.7 190.983 134.7C184.05 127.633 178.65 119.3 174.783 109.7C170.983 100.033 169.083 89.4333 169.083 77.9C169.083 66.4333 170.95 55.9667 174.683 46.5C178.483 36.9667 183.716 28.7333 190.383 21.8C197.05 14.8667 204.816 9.5 213.683 5.7C222.616 1.9 232.25 0 242.583 0C252.183 0 260.383 1.73333 267.183 5.19999C274.05 8.6 279.483 13.6333 283.483 20.3C287.55 26.9 290.183 35.0667 291.383 44.8H298.783L292.483 63.1C289.883 52.9667 284.583 44.9 276.583 38.9C268.583 32.9 258.983 29.9 247.783 29.9C238.716 29.9 230.716 31.9333 223.783 36C216.916 40 211.516 45.6333 207.583 52.9C203.716 60.1 201.783 68.4333 201.783 77.9C201.783 85.1 202.883 91.7 205.083 97.7C207.35 103.7 210.483 108.9 214.483 113.3C218.55 117.633 223.383 120.967 228.983 123.3C234.583 125.633 240.75 126.8 247.483 126.8C255.216 126.8 262.15 125.3 268.283 122.3C274.483 119.233 279.616 114.933 283.683 109.4C287.75 103.867 290.483 97.3667 291.883 89.9L323.883 95.3C321.683 107.633 317.083 118.433 310.083 127.7C303.15 136.9 294.316 144.033 283.583 149.1C272.916 154.167 260.883 156.7 247.483 156.7ZM292.483 63.1V2.39999H323.683V63.1H292.483Z" fill="#338BFF"/>
<path d="M62.2 154.2V127.7H74.7C84.3667 127.7 92.8 125.6 100 121.4C107.267 117.2 112.9 111.367 116.9 103.9C120.967 96.3671 123 87.7004 123 77.9004C123 68.2337 120.967 59.7337 116.9 52.4004C112.9 45.0004 107.267 39.2337 100 35.1004C92.8 30.9671 84.3667 28.9004 74.7 28.9004H62.2V2.40039H75.1C91.1 2.46706 105.133 5.70039 117.2 12.1004C129.267 18.5004 138.667 27.3671 145.4 38.7004C152.2 50.0337 155.6 63.1004 155.6 77.9004C155.6 92.9004 152.2 106.134 145.4 117.6C138.667 129.067 129.267 138.034 117.2 144.5C105.133 150.967 91.1 154.2 75.1 154.2H62.2ZM0 154.2V127.7H18.3V28.9004H0V2.40039H69.1V28.9004H49.5V127.7H69.1V154.2H0Z" fill="#338BFF"/>
<path d="M672.075 102.2V99.8002H674.425V87.1002H672.075V84.7002H679.075C681.408 84.7002 683.192 85.2919 684.425 86.4752C685.675 87.6585 686.3 89.4419 686.3 91.8252V95.1002C686.3 97.4835 685.675 99.2669 684.425 100.45C683.192 101.617 681.408 102.2 679.075 102.2H672.075ZM677.15 99.7502H679.1C680.617 99.7502 681.742 99.3669 682.475 98.6002C683.208 97.8335 683.575 96.6919 683.575 95.1752V91.7252C683.575 90.1919 683.208 89.0502 682.475 88.3002C681.742 87.5502 680.617 87.1752 679.1 87.1752H677.15V99.7502ZM695.201 102.55C693.968 102.55 692.868 102.3 691.901 101.8C690.951 101.284 690.201 100.55 689.651 99.6002C689.101 98.6502 688.826 97.5252 688.826 96.2252V95.8502C688.826 94.5502 689.101 93.4335 689.651 92.5002C690.201 91.5502 690.951 90.8169 691.901 90.3002C692.868 89.7835 693.968 89.5252 695.201 89.5252C696.434 89.5252 697.534 89.7835 698.501 90.3002C699.468 90.8169 700.226 91.5502 700.776 92.5002C701.326 93.4335 701.601 94.5502 701.601 95.8502V96.2252C701.601 97.5252 701.326 98.6502 700.776 99.6002C700.226 100.55 699.468 101.284 698.501 101.8C697.534 102.3 696.434 102.55 695.201 102.55ZM695.201 100.25C696.334 100.25 697.251 99.8919 697.951 99.1752C698.668 98.4419 699.026 97.4335 699.026 96.1502V95.9252C699.026 94.6419 698.676 93.6419 697.976 92.9252C697.276 92.1919 696.351 91.8252 695.201 91.8252C694.084 91.8252 693.168 92.1919 692.451 92.9252C691.751 93.6419 691.401 94.6419 691.401 95.9252V96.1502C691.401 97.4335 691.751 98.4419 692.451 99.1752C693.168 99.8919 694.084 100.25 695.201 100.25ZM704.807 102.2V89.8752H707.332V91.7252H707.732C707.965 91.2252 708.382 90.7585 708.982 90.3252C709.582 89.8919 710.474 89.6752 711.657 89.6752C712.59 89.6752 713.415 89.8835 714.132 90.3002C714.865 90.7169 715.44 91.3085 715.857 92.0752C716.274 92.8252 716.482 93.7335 716.482 94.8002V102.2H713.907V95.0002C713.907 93.9335 713.64 93.1502 713.107 92.6502C712.574 92.1335 711.84 91.8752 710.907 91.8752C709.84 91.8752 708.982 92.2252 708.332 92.9252C707.699 93.6252 707.382 94.6419 707.382 95.9752V102.2H704.807ZM719.588 96.1002V95.7252C719.588 94.4252 719.846 93.3169 720.363 92.4002C720.896 91.4835 721.596 90.7752 722.463 90.2752C723.329 89.7752 724.279 89.5252 725.313 89.5252C726.513 89.5252 727.429 89.7502 728.063 90.2002C728.713 90.6502 729.188 91.1335 729.488 91.6502H729.888V89.8752H732.388V104.725C732.388 105.475 732.163 106.075 731.713 106.525C731.279 106.975 730.679 107.2 729.913 107.2H721.613V104.95H729.113C729.596 104.95 729.838 104.7 729.838 104.2V100.275H729.438C729.254 100.575 728.996 100.884 728.663 101.2C728.329 101.517 727.888 101.775 727.338 101.975C726.804 102.175 726.129 102.275 725.313 102.275C724.279 102.275 723.321 102.034 722.438 101.55C721.571 101.05 720.879 100.342 720.363 99.4252C719.846 98.4919 719.588 97.3835 719.588 96.1002ZM726.013 100.025C727.129 100.025 728.046 99.6752 728.763 98.9752C729.496 98.2585 729.863 97.2752 729.863 96.0252V95.8002C729.863 94.5169 729.504 93.5335 728.788 92.8502C728.071 92.1502 727.146 91.8002 726.013 91.8002C724.913 91.8002 723.996 92.1502 723.263 92.8502C722.546 93.5335 722.188 94.5169 722.188 95.8002V96.0252C722.188 97.2752 722.546 98.2585 723.263 98.9752C723.996 99.6752 724.913 100.025 726.013 100.025ZM742.604 102.55C740.471 102.55 738.779 101.95 737.529 100.75C736.279 99.5335 735.654 97.7835 735.654 95.5002V91.4002C735.654 89.1169 736.279 87.3752 737.529 86.1752C738.779 84.9585 740.471 84.3502 742.604 84.3502C744.704 84.3502 746.321 84.9335 747.454 86.1002C748.604 87.2669 749.179 88.8585 749.179 90.8752V91.0252H746.504V90.8002C746.504 89.6169 746.179 88.6502 745.529 87.9002C744.896 87.1502 743.921 86.7752 742.604 86.7752C741.271 86.7752 740.229 87.1835 739.479 88.0002C738.729 88.8002 738.354 89.9169 738.354 91.3502V95.5502C738.354 96.9669 738.729 98.0835 739.479 98.9002C740.229 99.7169 741.271 100.125 742.604 100.125C743.921 100.125 744.896 99.7502 745.529 99.0002C746.179 98.2335 746.504 97.2669 746.504 96.1002V95.6752H749.179V96.0252C749.179 98.0419 748.604 99.6335 747.454 100.8C746.321 101.967 744.704 102.55 742.604 102.55ZM752.243 102.2V84.7002H754.818V91.6252H755.218C755.385 91.3085 755.618 91.0002 755.918 90.7002C756.235 90.4002 756.643 90.1585 757.143 89.9752C757.66 89.7752 758.31 89.6752 759.093 89.6752C760.027 89.6752 760.852 89.8835 761.568 90.3002C762.302 90.7169 762.877 91.3085 763.293 92.0752C763.71 92.8252 763.918 93.7335 763.918 94.8002V102.2H761.343V95.0002C761.343 93.9335 761.077 93.1502 760.543 92.6502C760.01 92.1335 759.277 91.8752 758.343 91.8752C757.277 91.8752 756.418 92.2252 755.768 92.9252C755.135 93.6252 754.818 94.6419 754.818 95.9752V102.2H752.243ZM773.274 102.55C772.024 102.55 770.933 102.292 769.999 101.775C769.066 101.242 768.333 100.5 767.799 99.5502C767.283 98.5835 767.024 97.4669 767.024 96.2002V95.9002C767.024 94.6169 767.283 93.5002 767.799 92.5502C768.316 91.5835 769.033 90.8419 769.949 90.3252C770.883 89.7919 771.958 89.5252 773.174 89.5252C774.358 89.5252 775.391 89.7919 776.274 90.3252C777.174 90.8419 777.874 91.5669 778.374 92.5002C778.874 93.4335 779.124 94.5252 779.124 95.7752V96.7502H769.649C769.683 97.8335 770.041 98.7002 770.724 99.3502C771.424 99.9835 772.291 100.3 773.324 100.3C774.291 100.3 775.016 100.084 775.499 99.6502C775.999 99.2169 776.383 98.7169 776.649 98.1502L778.774 99.2502C778.541 99.7169 778.199 100.209 777.749 100.725C777.316 101.242 776.741 101.675 776.024 102.025C775.308 102.375 774.391 102.55 773.274 102.55ZM769.674 94.7752H776.499C776.433 93.8419 776.099 93.1169 775.499 92.6002C774.899 92.0669 774.116 91.8002 773.149 91.8002C772.183 91.8002 771.391 92.0669 770.774 92.6002C770.174 93.1169 769.808 93.8419 769.674 94.7752ZM782.224 102.2V89.8752H784.749V91.7252H785.149C785.382 91.2252 785.799 90.7585 786.399 90.3252C786.999 89.8919 787.891 89.6752 789.074 89.6752C790.007 89.6752 790.832 89.8835 791.549 90.3002C792.282 90.7169 792.857 91.3085 793.274 92.0752C793.691 92.8252 793.899 93.7335 793.899 94.8002V102.2H791.324V95.0002C791.324 93.9335 791.057 93.1502 790.524 92.6502C789.991 92.1335 789.257 91.8752 788.324 91.8752C787.257 91.8752 786.399 92.2252 785.749 92.9252C785.116 93.6252 784.799 94.6419 784.799 95.9752V102.2H782.224ZM672.075 128.2V125.8H674.425V113.1H672.075V110.7H679.075C681.408 110.7 683.192 111.292 684.425 112.475C685.675 113.659 686.3 115.442 686.3 117.825V121.1C686.3 123.484 685.675 125.267 684.425 126.45C683.192 127.617 681.408 128.2 679.075 128.2H672.075ZM677.15 125.75H679.1C680.617 125.75 681.742 125.367 682.475 124.6C683.208 123.834 683.575 122.692 683.575 121.175V117.725C683.575 116.192 683.208 115.05 682.475 114.3C681.742 113.55 680.617 113.175 679.1 113.175H677.15V125.75ZM695.076 128.55C693.826 128.55 692.734 128.292 691.801 127.775C690.868 127.242 690.134 126.5 689.601 125.55C689.084 124.584 688.826 123.467 688.826 122.2V121.9C688.826 120.617 689.084 119.5 689.601 118.55C690.118 117.584 690.834 116.842 691.751 116.325C692.684 115.792 693.759 115.525 694.976 115.525C696.159 115.525 697.193 115.792 698.076 116.325C698.976 116.842 699.676 117.567 700.176 118.5C700.676 119.434 700.926 120.525 700.926 121.775V122.75H691.451C691.484 123.834 691.843 124.7 692.526 125.35C693.226 125.984 694.093 126.3 695.126 126.3C696.093 126.3 696.818 126.084 697.301 125.65C697.801 125.217 698.184 124.717 698.451 124.15L700.576 125.25C700.343 125.717 700.001 126.209 699.551 126.725C699.118 127.242 698.543 127.675 697.826 128.025C697.109 128.375 696.193 128.55 695.076 128.55ZM691.476 120.775H698.301C698.234 119.842 697.901 119.117 697.301 118.6C696.701 118.067 695.918 117.8 694.951 117.8C693.984 117.8 693.193 118.067 692.576 118.6C691.976 119.117 691.609 119.842 691.476 120.775ZM709.076 128.55C707.509 128.55 706.209 128.2 705.176 127.5C704.142 126.8 703.509 125.742 703.276 124.325L705.676 123.75C705.809 124.434 706.034 124.975 706.351 125.375C706.667 125.775 707.059 126.059 707.526 126.225C708.009 126.392 708.526 126.475 709.076 126.475C709.892 126.475 710.517 126.317 710.951 126C711.401 125.684 711.626 125.275 711.626 124.775C711.626 124.275 711.417 123.909 711.001 123.675C710.584 123.442 709.967 123.25 709.151 123.1L708.301 122.95C707.467 122.8 706.709 122.584 706.026 122.3C705.342 122.017 704.801 121.625 704.401 121.125C704.001 120.625 703.801 119.984 703.801 119.2C703.801 118.034 704.234 117.134 705.101 116.5C705.967 115.85 707.117 115.525 708.551 115.525C709.934 115.525 711.067 115.842 711.951 116.475C712.851 117.092 713.434 117.934 713.701 119L711.301 119.675C711.151 118.925 710.834 118.4 710.351 118.1C709.867 117.784 709.267 117.625 708.551 117.625C707.851 117.625 707.301 117.759 706.901 118.025C706.501 118.275 706.301 118.634 706.301 119.1C706.301 119.6 706.492 119.967 706.876 120.2C707.276 120.434 707.809 120.609 708.476 120.725L709.351 120.875C710.234 121.025 711.042 121.234 711.776 121.5C712.509 121.767 713.084 122.15 713.501 122.65C713.934 123.15 714.151 123.817 714.151 124.65C714.151 125.884 713.692 126.842 712.776 127.525C711.859 128.209 710.626 128.55 709.076 128.55ZM717.16 128.2V115.875H719.735V128.2H717.16ZM718.46 114.2C717.96 114.2 717.535 114.042 717.185 113.725C716.852 113.392 716.685 112.967 716.685 112.45C716.685 111.934 716.852 111.517 717.185 111.2C717.535 110.867 717.96 110.7 718.46 110.7C718.977 110.7 719.402 110.867 719.735 111.2C720.069 111.517 720.235 111.934 720.235 112.45C720.235 112.967 720.069 113.392 719.735 113.725C719.402 114.042 718.977 114.2 718.46 114.2ZM722.957 122.1V121.725C722.957 120.425 723.215 119.317 723.732 118.4C724.265 117.484 724.965 116.775 725.832 116.275C726.699 115.775 727.649 115.525 728.682 115.525C729.882 115.525 730.799 115.75 731.432 116.2C732.082 116.65 732.557 117.134 732.857 117.65H733.257V115.875H735.757V130.725C735.757 131.475 735.532 132.075 735.082 132.525C734.649 132.975 734.049 133.2 733.282 133.2H724.982V130.95H732.482C732.965 130.95 733.207 130.7 733.207 130.2V126.275H732.807C732.624 126.575 732.365 126.884 732.032 127.2C731.699 127.517 731.257 127.775 730.707 127.975C730.174 128.175 729.499 128.275 728.682 128.275C727.649 128.275 726.69 128.034 725.807 127.55C724.94 127.05 724.249 126.342 723.732 125.425C723.215 124.492 722.957 123.384 722.957 122.1ZM729.382 126.025C730.499 126.025 731.415 125.675 732.132 124.975C732.865 124.259 733.232 123.275 733.232 122.025V121.8C733.232 120.517 732.874 119.534 732.157 118.85C731.44 118.15 730.515 117.8 729.382 117.8C728.282 117.8 727.365 118.15 726.632 118.85C725.915 119.534 725.557 120.517 725.557 121.8V122.025C725.557 123.275 725.915 124.259 726.632 124.975C727.365 125.675 728.282 126.025 729.382 126.025ZM739.548 128.2V115.875H742.073V117.725H742.473C742.706 117.225 743.123 116.759 743.723 116.325C744.323 115.892 745.215 115.675 746.398 115.675C747.331 115.675 748.156 115.884 748.873 116.3C749.606 116.717 750.181 117.309 750.598 118.075C751.015 118.825 751.223 119.734 751.223 120.8V128.2H748.648V121C748.648 119.934 748.381 119.15 747.848 118.65C747.315 118.134 746.581 117.875 745.648 117.875C744.581 117.875 743.723 118.225 743.073 118.925C742.44 119.625 742.123 120.642 742.123 121.975V128.2H739.548ZM761.226 128.2V110.7H772.251V113.15H763.926V118.175H771.551V120.625H763.926V125.75H772.376V128.2H761.226ZM774.216 128.2L778.916 121.975L774.316 115.875H777.341L780.566 120.3H780.966L784.191 115.875H787.241L782.616 121.975L787.316 128.2H784.241L780.966 123.675H780.566L777.291 128.2H774.216ZM795.005 128.55C793.821 128.55 792.746 128.3 791.78 127.8C790.83 127.3 790.071 126.575 789.505 125.625C788.955 124.675 788.68 123.534 788.68 122.2V121.875C788.68 120.542 788.955 119.409 789.505 118.475C790.071 117.525 790.83 116.8 791.78 116.3C792.746 115.784 793.821 115.525 795.005 115.525C796.188 115.525 797.196 115.742 798.03 116.175C798.863 116.609 799.53 117.184 800.03 117.9C800.546 118.617 800.88 119.409 801.03 120.275L798.53 120.8C798.446 120.25 798.271 119.75 798.005 119.3C797.738 118.85 797.363 118.492 796.88 118.225C796.396 117.959 795.788 117.825 795.055 117.825C794.338 117.825 793.688 117.992 793.105 118.325C792.538 118.642 792.088 119.109 791.755 119.725C791.421 120.325 791.255 121.059 791.255 121.925V122.15C791.255 123.017 791.421 123.759 791.755 124.375C792.088 124.992 792.538 125.459 793.105 125.775C793.688 126.092 794.338 126.25 795.055 126.25C796.138 126.25 796.963 125.975 797.53 125.425C798.096 124.859 798.455 124.142 798.605 123.275L801.105 123.85C800.905 124.7 800.546 125.484 800.03 126.2C799.53 126.917 798.863 127.492 798.03 127.925C797.196 128.342 796.188 128.55 795.005 128.55ZM804.074 128.2V110.7H806.649V117.625H807.049C807.216 117.309 807.449 117 807.749 116.7C808.066 116.4 808.474 116.159 808.974 115.975C809.491 115.775 810.141 115.675 810.924 115.675C811.858 115.675 812.683 115.884 813.399 116.3C814.133 116.717 814.708 117.309 815.124 118.075C815.541 118.825 815.749 119.734 815.749 120.8V128.2H813.174V121C813.174 119.934 812.908 119.15 812.374 118.65C811.841 118.134 811.108 117.875 810.174 117.875C809.108 117.875 808.249 118.225 807.599 118.925C806.966 119.625 806.649 120.642 806.649 121.975V128.2H804.074ZM823.28 128.55C822.397 128.55 821.605 128.4 820.905 128.1C820.222 127.8 819.672 127.359 819.255 126.775C818.855 126.192 818.655 125.484 818.655 124.65C818.655 123.8 818.855 123.1 819.255 122.55C819.672 121.984 820.23 121.559 820.93 121.275C821.647 120.992 822.455 120.85 823.355 120.85H827.105V120.05C827.105 119.334 826.889 118.759 826.455 118.325C826.022 117.892 825.355 117.675 824.455 117.675C823.572 117.675 822.897 117.884 822.43 118.3C821.964 118.717 821.655 119.259 821.505 119.925L819.105 119.15C819.305 118.484 819.622 117.884 820.055 117.35C820.505 116.8 821.097 116.359 821.83 116.025C822.564 115.692 823.447 115.525 824.48 115.525C826.08 115.525 827.339 115.934 828.255 116.75C829.172 117.567 829.63 118.725 829.63 120.225V125.3C829.63 125.8 829.864 126.05 830.33 126.05H831.38V128.2H829.455C828.872 128.2 828.397 128.05 828.03 127.75C827.664 127.45 827.48 127.042 827.48 126.525V126.45H827.105C826.972 126.7 826.772 126.992 826.505 127.325C826.239 127.659 825.847 127.95 825.33 128.2C824.814 128.434 824.13 128.55 823.28 128.55ZM823.655 126.425C824.689 126.425 825.522 126.134 826.155 125.55C826.789 124.95 827.105 124.134 827.105 123.1V122.85H823.505C822.822 122.85 822.272 123 821.855 123.3C821.439 123.584 821.23 124.009 821.23 124.575C821.23 125.142 821.447 125.592 821.88 125.925C822.314 126.259 822.905 126.425 823.655 126.425ZM833.884 128.2V115.875H836.409V117.725H836.809C837.042 117.225 837.459 116.759 838.059 116.325C838.659 115.892 839.551 115.675 840.734 115.675C841.667 115.675 842.492 115.884 843.209 116.3C843.942 116.717 844.517 117.309 844.934 118.075C845.351 118.825 845.559 119.734 845.559 120.8V128.2H842.984V121C842.984 119.934 842.717 119.15 842.184 118.65C841.651 118.134 840.917 117.875 839.984 117.875C838.917 117.875 838.059 118.225 837.409 118.925C836.776 119.625 836.459 120.642 836.459 121.975V128.2H833.884ZM848.665 122.1V121.725C848.665 120.425 848.923 119.317 849.44 118.4C849.973 117.484 850.673 116.775 851.54 116.275C852.407 115.775 853.357 115.525 854.39 115.525C855.59 115.525 856.507 115.75 857.14 116.2C857.79 116.65 858.265 117.134 858.565 117.65H858.965V115.875H861.465V130.725C861.465 131.475 861.24 132.075 860.79 132.525C860.357 132.975 859.757 133.2 858.99 133.2H850.69V130.95H858.19C858.673 130.95 858.915 130.7 858.915 130.2V126.275H858.515C858.332 126.575 858.073 126.884 857.74 127.2C857.407 127.517 856.965 127.775 856.415 127.975C855.882 128.175 855.207 128.275 854.39 128.275C853.357 128.275 852.398 128.034 851.515 127.55C850.648 127.05 849.957 126.342 849.44 125.425C848.923 124.492 848.665 123.384 848.665 122.1ZM855.09 126.025C856.207 126.025 857.123 125.675 857.84 124.975C858.573 124.259 858.94 123.275 858.94 122.025V121.8C858.94 120.517 858.582 119.534 857.865 118.85C857.148 118.15 856.223 117.8 855.09 117.8C853.99 117.8 853.073 118.15 852.34 118.85C851.623 119.534 851.265 120.517 851.265 121.8V122.025C851.265 123.275 851.623 124.259 852.34 124.975C853.073 125.675 853.99 126.025 855.09 126.025ZM870.906 128.55C869.656 128.55 868.564 128.292 867.631 127.775C866.698 127.242 865.964 126.5 865.431 125.55C864.914 124.584 864.656 123.467 864.656 122.2V121.9C864.656 120.617 864.914 119.5 865.431 118.55C865.948 117.584 866.664 116.842 867.581 116.325C868.514 115.792 869.589 115.525 870.806 115.525C871.989 115.525 873.023 115.792 873.906 116.325C874.806 116.842 875.506 117.567 876.006 118.5C876.506 119.434 876.756 120.525 876.756 121.775V122.75H867.281C867.314 123.834 867.673 124.7 868.356 125.35C869.056 125.984 869.923 126.3 870.956 126.3C871.923 126.3 872.648 126.084 873.131 125.65C873.631 125.217 874.014 124.717 874.281 124.15L876.406 125.25C876.173 125.717 875.831 126.209 875.381 126.725C874.948 127.242 874.373 127.675 873.656 128.025C872.939 128.375 872.023 128.55 870.906 128.55ZM867.306 120.775H874.131C874.064 119.842 873.731 119.117 873.131 118.6C872.531 118.067 871.748 117.8 870.781 117.8C869.814 117.8 869.023 118.067 868.406 118.6C867.806 119.117 867.439 119.842 867.306 120.775ZM678.675 154.55C677.358 154.55 676.192 154.317 675.175 153.85C674.158 153.384 673.358 152.7 672.775 151.8C672.208 150.884 671.925 149.775 671.925 148.475V147.85H674.6V148.475C674.6 149.709 674.967 150.634 675.7 151.25C676.45 151.867 677.442 152.175 678.675 152.175C679.925 152.175 680.867 151.917 681.5 151.4C682.133 150.867 682.45 150.184 682.45 149.35C682.45 148.8 682.3 148.35 682 148C681.7 147.65 681.275 147.375 680.725 147.175C680.175 146.959 679.517 146.759 678.75 146.575L677.825 146.35C676.708 146.084 675.733 145.759 674.9 145.375C674.083 144.975 673.45 144.45 673 143.8C672.55 143.15 672.325 142.317 672.325 141.3C672.325 140.267 672.575 139.384 673.075 138.65C673.592 137.917 674.3 137.35 675.2 136.95C676.1 136.55 677.158 136.35 678.375 136.35C679.592 136.35 680.675 136.559 681.625 136.975C682.592 137.392 683.35 138.009 683.9 138.825C684.45 139.642 684.725 140.667 684.725 141.9V142.8H682.05V141.9C682.05 141.15 681.892 140.542 681.575 140.075C681.275 139.609 680.85 139.267 680.3 139.05C679.75 138.834 679.108 138.725 678.375 138.725C677.308 138.725 676.475 138.95 675.875 139.4C675.292 139.834 675 140.442 675 141.225C675 141.759 675.125 142.2 675.375 142.55C675.642 142.884 676.025 143.159 676.525 143.375C677.025 143.592 677.65 143.784 678.4 143.95L679.325 144.175C680.458 144.425 681.458 144.75 682.325 145.15C683.192 145.534 683.875 146.059 684.375 146.725C684.875 147.392 685.125 148.25 685.125 149.3C685.125 150.35 684.858 151.267 684.325 152.05C683.808 152.834 683.067 153.45 682.1 153.9C681.133 154.334 679.992 154.55 678.675 154.55ZM692.659 154.2C691.909 154.2 691.309 153.975 690.859 153.525C690.426 153.075 690.209 152.475 690.209 151.725V144.05H686.809V141.875H690.209V137.8H692.784V141.875H696.459V144.05H692.784V151.275C692.784 151.775 693.018 152.025 693.484 152.025H696.059V154.2H692.659ZM704.21 154.425C703.276 154.425 702.443 154.217 701.71 153.8C700.976 153.384 700.401 152.792 699.985 152.025C699.568 151.259 699.36 150.342 699.36 149.275V141.875H701.935V149.1C701.935 150.167 702.201 150.959 702.735 151.475C703.268 151.975 704.01 152.225 704.96 152.225C706.01 152.225 706.851 151.875 707.485 151.175C708.135 150.459 708.46 149.434 708.46 148.1V141.875H711.035V154.2H708.51V152.35H708.11C707.876 152.85 707.46 153.325 706.86 153.775C706.26 154.209 705.376 154.425 704.21 154.425ZM719.941 154.55C718.924 154.55 717.983 154.3 717.116 153.8C716.249 153.3 715.549 152.584 715.016 151.65C714.499 150.7 714.241 149.559 714.241 148.225V147.85C714.241 146.534 714.499 145.4 715.016 144.45C715.533 143.5 716.224 142.775 717.091 142.275C717.958 141.775 718.908 141.525 719.941 141.525C720.741 141.525 721.408 141.625 721.941 141.825C722.491 142.025 722.941 142.284 723.291 142.6C723.641 142.9 723.908 143.217 724.091 143.55H724.491V136.7H727.066V154.2H724.541V152.45H724.141C723.824 152.984 723.341 153.467 722.691 153.9C722.058 154.334 721.141 154.55 719.941 154.55ZM720.666 152.3C721.783 152.3 722.699 151.942 723.416 151.225C724.149 150.509 724.516 149.484 724.516 148.15V147.925C724.516 146.609 724.158 145.592 723.441 144.875C722.724 144.159 721.799 143.8 720.666 143.8C719.566 143.8 718.649 144.159 717.916 144.875C717.199 145.592 716.841 146.609 716.841 147.925V148.15C716.841 149.484 717.199 150.509 717.916 151.225C718.649 151.942 719.566 152.3 720.666 152.3ZM730.857 154.2V141.875H733.432V154.2H730.857ZM732.157 140.2C731.657 140.2 731.232 140.042 730.882 139.725C730.548 139.392 730.382 138.967 730.382 138.45C730.382 137.934 730.548 137.517 730.882 137.2C731.232 136.867 731.657 136.7 732.157 136.7C732.673 136.7 733.098 136.867 733.432 137.2C733.765 137.517 733.932 137.934 733.932 138.45C733.932 138.967 733.765 139.392 733.432 139.725C733.098 140.042 732.673 140.2 732.157 140.2ZM743.028 154.55C741.795 154.55 740.695 154.3 739.728 153.8C738.778 153.284 738.028 152.55 737.478 151.6C736.928 150.65 736.653 149.525 736.653 148.225V147.85C736.653 146.55 736.928 145.434 737.478 144.5C738.028 143.55 738.778 142.817 739.728 142.3C740.695 141.784 741.795 141.525 743.028 141.525C744.261 141.525 745.361 141.784 746.328 142.3C747.295 142.817 748.053 143.55 748.603 144.5C749.153 145.434 749.428 146.55 749.428 147.85V148.225C749.428 149.525 749.153 150.65 748.603 151.6C748.053 152.55 747.295 153.284 746.328 153.8C745.361 154.3 744.261 154.55 743.028 154.55ZM743.028 152.25C744.161 152.25 745.078 151.892 745.778 151.175C746.495 150.442 746.853 149.434 746.853 148.15V147.925C746.853 146.642 746.503 145.642 745.803 144.925C745.103 144.192 744.178 143.825 743.028 143.825C741.911 143.825 740.995 144.192 740.278 144.925C739.578 145.642 739.228 146.642 739.228 147.925V148.15C739.228 149.434 739.578 150.442 740.278 151.175C740.995 151.892 741.911 152.25 743.028 152.25Z" fill="#338BFF"/>
</svg>
