<svg width="335" height="340" viewBox="0 0 335 340" fill="none" xmlns="http://www.w3.org/2000/svg">
<path fill-rule="evenodd" clip-rule="evenodd" d="M119.852 0C134.963 0.0629845 148.217 3.11659 159.613 9.16113C171.01 15.2058 179.889 23.581 186.248 34.2852C192.67 44.9892 195.881 57.3304 195.881 71.3086C195.881 80.1112 194.64 88.269 192.16 95.7832C192.235 95.5891 192.311 95.3954 192.388 95.2021C196.04 86.1352 201.171 78.2959 207.782 71.6846C214.456 65.1362 222.327 60.0358 231.394 56.3838C240.523 52.7948 250.535 51 261.428 51C272.258 51 282.143 52.7631 291.084 56.2891C300.088 59.8781 307.865 64.8216 314.413 71.1182C320.961 77.4146 326.029 84.7499 329.618 93.124C333.207 101.561 335.002 110.66 335.002 120.42C335.002 129.487 333.365 137.232 330.091 143.654C326.88 150.14 322.126 155.272 315.829 159.05C309.596 162.891 301.882 165.377 292.689 166.511V167.55H332.735V197.018H290.33V221.476H273.047V314.791H290.33V339.819H219.4C204.289 339.756 191.035 336.703 179.639 330.658C168.242 324.613 159.364 316.238 153.005 305.534C146.583 294.83 143.371 282.489 143.371 268.511C143.371 254.343 146.583 241.845 153.005 231.015C159.364 220.185 168.242 211.716 179.639 205.608C191.035 199.501 204.289 196.446 219.4 196.446H241.244C231.144 194.155 222.193 190.065 214.394 184.173C205.704 177.624 198.967 169.281 194.182 159.144C189.396 149.069 187.004 137.704 187.004 125.048C187.004 115.716 188.336 107.039 191.001 99.0156C189.683 102.417 188.1 105.681 186.248 108.805C179.889 119.635 171.01 128.103 159.613 134.211C151.28 138.677 141.954 141.509 131.635 142.709H143.371V282.304H118.343V265.02H25.0293V282.304H0V144.409H49.3965V173.877H25.0293V235.552H59.7852V188.705H82.5469V235.552H118.343V172.177H93.9756V143.373H48.9219V118.344H66.2061V25.0293H48.9219V0H119.852ZM219.778 221.476C210.649 221.476 202.684 223.459 195.884 227.426C189.021 231.393 183.7 236.902 179.922 243.954C176.081 251.069 174.16 259.255 174.16 268.511C174.16 277.641 176.081 285.669 179.922 292.595C183.7 299.584 189.021 305.031 195.884 308.935C202.684 312.838 210.649 314.791 219.778 314.791H243.579V221.476H219.778ZM261.428 81.8848C254.628 81.8848 248.394 82.9241 242.728 85.002C237.061 87.1427 232.15 90.102 227.994 93.8799C223.901 97.7208 220.753 102.286 218.549 107.575C216.345 112.864 215.243 118.688 215.243 125.048C215.243 132.352 216.66 138.901 219.493 144.693C222.389 150.549 226.451 155.397 231.677 159.238C236.903 163.079 243.043 165.661 250.095 166.983L245.122 196.446H275.406V167.55C284.977 165.094 292.596 160.088 298.263 152.532C303.929 144.976 306.763 135.909 306.763 125.331C306.763 116.768 304.842 109.211 301.001 102.663C297.223 96.178 291.903 91.0781 285.04 87.3633C278.24 83.7113 270.369 81.8848 261.428 81.8848ZM95.6729 118.344H119.474C128.604 118.344 136.569 116.36 143.369 112.394C150.232 108.427 155.552 102.917 159.33 95.8652C163.171 88.7501 165.092 80.5645 165.092 71.3086C165.092 62.1787 163.171 54.1508 159.33 47.2246C155.552 40.2355 150.232 34.7886 143.369 30.8848C136.569 26.9809 128.604 25.0293 119.474 25.0293H95.6729V118.344Z" fill="black"/>
</svg>
