<svg width="499" height="507" viewBox="0 0 499 507" fill="none" xmlns="http://www.w3.org/2000/svg">
<path d="M178.523 0C201.032 0.0938536 220.774 4.64281 237.75 13.6465C254.726 22.6503 267.95 35.1242 277.423 51.0684C286.989 67.0127 291.772 85.3964 291.772 106.218C291.772 119.33 289.924 131.483 286.23 142.676C286.342 142.386 286.454 142.097 286.568 141.809C292.008 128.303 299.652 116.625 309.5 106.777C319.442 97.0233 331.165 89.4261 344.671 83.9863C358.27 78.6404 373.182 75.9678 389.407 75.9678C405.539 75.9678 420.264 78.5935 433.582 83.8457C446.994 89.1917 458.577 96.5546 468.331 105.934C478.085 115.312 485.635 126.239 490.98 138.713C496.326 151.281 498.999 164.834 498.999 179.371C498.999 192.877 496.561 204.413 491.684 213.979C486.9 223.64 479.819 231.284 470.44 236.911C461.155 242.632 449.667 246.337 435.974 248.025V249.573H495.623V293.467H432.458V329.898H406.714V468.896H432.458V506.177H326.806C304.296 506.083 284.554 501.534 267.578 492.53C250.602 483.526 237.378 471.053 227.905 455.108C218.359 439.197 213.576 420.857 213.557 400.089V420.503H176.275V394.757H37.2812V420.503H0V215.103H73.5771V258.996H37.2812V350.863H89.0518V281.084H122.957V350.863H176.275V256.464H139.979V213.561H72.8701V176.278H98.6152V37.2812H72.8701V0H178.523ZM327.368 329.898C313.769 329.898 301.905 332.853 291.775 338.762C281.553 344.671 273.627 352.877 268 363.382C262.279 373.98 259.419 386.173 259.419 399.96C259.419 413.559 262.279 425.517 268 435.834C273.627 446.245 281.552 454.358 291.775 460.173C301.905 465.988 313.769 468.895 327.368 468.896H362.82V329.898H327.368ZM284.502 147.498C282.539 152.561 280.181 157.419 277.423 162.069C267.95 178.201 254.726 190.816 237.75 199.914C225.338 206.566 211.446 210.782 196.076 212.57H213.557V399.828C213.576 378.779 218.359 360.206 227.905 344.107C237.378 327.976 250.602 315.36 267.578 306.263C284.554 297.165 304.297 292.616 326.806 292.616H359.345C344.299 289.203 330.966 283.111 319.348 274.334C306.405 264.58 296.369 252.152 289.241 237.052C282.113 222.045 278.55 205.116 278.55 186.265C278.55 172.368 280.535 159.446 284.502 147.498ZM389.407 121.972C379.278 121.972 369.994 123.519 361.553 126.614C353.112 129.803 345.796 134.211 339.605 139.839C333.509 145.56 328.82 152.36 325.537 160.238C322.255 168.117 320.613 176.792 320.613 186.265C320.613 197.144 322.724 206.899 326.944 215.527C331.259 224.25 337.308 231.471 345.093 237.192C352.877 242.914 362.021 246.759 372.525 248.729L365.12 292.616H410.229V249.573C424.484 245.915 435.832 238.459 444.273 227.204C452.714 215.949 456.936 202.443 456.936 186.687C456.936 173.931 454.075 162.676 448.354 152.922C442.726 143.262 434.801 135.664 424.578 130.131C414.449 124.691 402.725 121.972 389.407 121.972ZM142.508 176.278H177.96C191.559 176.278 203.424 173.324 213.553 167.415C223.776 161.506 231.701 153.3 237.328 142.796C243.049 132.198 245.91 120.005 245.91 106.218C245.91 92.6182 243.049 80.6597 237.328 70.3428C231.701 59.9321 223.776 51.8189 213.553 46.0039C203.424 40.189 191.559 37.2812 177.96 37.2812H142.508V176.278Z" fill="#338BFF"/>
</svg>
