<svg width="388" height="158" viewBox="0 0 388 158" fill="none" xmlns="http://www.w3.org/2000/svg">
<path d="M186.05 76.2002C185.05 76.2002 184.159 76.0169 183.375 75.6502C182.609 75.2835 182 74.7502 181.55 74.0502C181.117 73.3502 180.9 72.5085 180.9 71.5252C180.9 70.7919 181.034 70.1585 181.3 69.6252C181.567 69.0919 181.925 68.6502 182.375 68.3002C182.842 67.9335 183.342 67.6669 183.875 67.5002V67.1752C183.075 66.9252 182.4 66.4919 181.85 65.8752C181.3 65.2585 181.025 64.4252 181.025 63.3752C181.025 62.3585 181.25 61.5085 181.7 60.8252C182.167 60.1252 182.784 59.6002 183.55 59.2502C184.317 58.8835 185.184 58.7002 186.15 58.7002H189.1V60.8752H186.575C185.742 60.8752 185.042 61.1002 184.475 61.5502C183.909 61.9835 183.625 62.6585 183.625 63.5752C183.625 64.2085 183.759 64.7252 184.025 65.1252C184.309 65.5085 184.667 65.8002 185.1 66.0002C185.55 66.1835 186.042 66.2752 186.575 66.2752H189.5V63.8002H192.075V66.2752H194.45V68.4502H192.075V76.2002H186.05ZM186.475 74.0252H189.5V68.4502H186.475C185.642 68.4502 184.934 68.6835 184.35 69.1502C183.767 69.6002 183.475 70.3002 183.475 71.2502C183.475 72.2002 183.775 72.9002 184.375 73.3502C184.975 73.8002 185.675 74.0252 186.475 74.0252ZM181.175 102.2V99.8002H183.525V87.1002H181.175V84.7002H188.175C190.509 84.7002 192.292 85.2919 193.525 86.4752C194.775 87.6585 195.4 89.4419 195.4 91.8252V95.1002C195.4 97.4835 194.775 99.2669 193.525 100.45C192.292 101.617 190.509 102.2 188.175 102.2H181.175ZM186.25 99.7502H188.2C189.717 99.7502 190.842 99.3669 191.575 98.6002C192.309 97.8335 192.675 96.6919 192.675 95.1752V91.7252C192.675 90.1919 192.309 89.0502 191.575 88.3002C190.842 87.5502 189.717 87.1752 188.2 87.1752H186.25V99.7502ZM204.301 102.55C203.068 102.55 201.968 102.3 201.001 101.8C200.051 101.284 199.301 100.55 198.751 99.6002C198.201 98.6502 197.926 97.5252 197.926 96.2252V95.8502C197.926 94.5502 198.201 93.4335 198.751 92.5002C199.301 91.5502 200.051 90.8169 201.001 90.3002C201.968 89.7835 203.068 89.5252 204.301 89.5252C205.535 89.5252 206.635 89.7835 207.601 90.3002C208.568 90.8169 209.326 91.5502 209.876 92.5002C210.426 93.4335 210.701 94.5502 210.701 95.8502V96.2252C210.701 97.5252 210.426 98.6502 209.876 99.6002C209.326 100.55 208.568 101.284 207.601 101.8C206.635 102.3 205.535 102.55 204.301 102.55ZM204.301 100.25C205.435 100.25 206.351 99.8919 207.051 99.1752C207.768 98.4419 208.126 97.4335 208.126 96.1502V95.9252C208.126 94.6419 207.776 93.6419 207.076 92.9252C206.376 92.1919 205.451 91.8252 204.301 91.8252C203.185 91.8252 202.268 92.1919 201.551 92.9252C200.851 93.6419 200.501 94.6419 200.501 95.9252V96.1502C200.501 97.4335 200.851 98.4419 201.551 99.1752C202.268 99.8919 203.185 100.25 204.301 100.25ZM213.907 102.2V89.8752H216.432V91.7252H216.832C217.065 91.2252 217.482 90.7585 218.082 90.3252C218.682 89.8919 219.574 89.6752 220.757 89.6752C221.69 89.6752 222.515 89.8835 223.232 90.3002C223.965 90.7169 224.54 91.3085 224.957 92.0752C225.374 92.8252 225.582 93.7335 225.582 94.8002V102.2H223.007V95.0002C223.007 93.9335 222.74 93.1502 222.207 92.6502C221.674 92.1335 220.94 91.8752 220.007 91.8752C218.94 91.8752 218.082 92.2252 217.432 92.9252C216.799 93.6252 216.482 94.6419 216.482 95.9752V102.2H213.907ZM228.688 96.1002V95.7252C228.688 94.4252 228.946 93.3169 229.463 92.4002C229.996 91.4835 230.696 90.7752 231.563 90.2752C232.43 89.7752 233.38 89.5252 234.413 89.5252C235.613 89.5252 236.53 89.7502 237.163 90.2002C237.813 90.6502 238.288 91.1335 238.588 91.6502H238.988V89.8752H241.488V104.725C241.488 105.475 241.263 106.075 240.813 106.525C240.38 106.975 239.78 107.2 239.013 107.2H230.713V104.95H238.213C238.696 104.95 238.938 104.7 238.938 104.2V100.275H238.538C238.355 100.575 238.096 100.884 237.763 101.2C237.43 101.517 236.988 101.775 236.438 101.975C235.905 102.175 235.23 102.275 234.413 102.275C233.38 102.275 232.421 102.034 231.538 101.55C230.671 101.05 229.98 100.342 229.463 99.4252C228.946 98.4919 228.688 97.3835 228.688 96.1002ZM235.113 100.025C236.23 100.025 237.146 99.6752 237.863 98.9752C238.596 98.2585 238.963 97.2752 238.963 96.0252V95.8002C238.963 94.5169 238.605 93.5335 237.888 92.8502C237.171 92.1502 236.246 91.8002 235.113 91.8002C234.013 91.8002 233.096 92.1502 232.363 92.8502C231.646 93.5335 231.288 94.5169 231.288 95.8002V96.0252C231.288 97.2752 231.646 98.2585 232.363 98.9752C233.096 99.6752 234.013 100.025 235.113 100.025ZM251.704 102.55C249.571 102.55 247.879 101.95 246.629 100.75C245.379 99.5335 244.754 97.7835 244.754 95.5002V91.4002C244.754 89.1169 245.379 87.3752 246.629 86.1752C247.879 84.9585 249.571 84.3502 251.704 84.3502C253.804 84.3502 255.421 84.9335 256.554 86.1002C257.704 87.2669 258.279 88.8585 258.279 90.8752V91.0252H255.604V90.8002C255.604 89.6169 255.279 88.6502 254.629 87.9002C253.996 87.1502 253.021 86.7752 251.704 86.7752C250.371 86.7752 249.329 87.1835 248.579 88.0002C247.829 88.8002 247.454 89.9169 247.454 91.3502V95.5502C247.454 96.9669 247.829 98.0835 248.579 98.9002C249.329 99.7169 250.371 100.125 251.704 100.125C253.021 100.125 253.996 99.7502 254.629 99.0002C255.279 98.2335 255.604 97.2669 255.604 96.1002V95.6752H258.279V96.0252C258.279 98.0419 257.704 99.6335 256.554 100.8C255.421 101.967 253.804 102.55 251.704 102.55ZM261.344 102.2V84.7002H263.919V91.6252H264.319C264.485 91.3085 264.719 91.0002 265.019 90.7002C265.335 90.4002 265.744 90.1585 266.244 89.9752C266.76 89.7752 267.41 89.6752 268.194 89.6752C269.127 89.6752 269.952 89.8835 270.669 90.3002C271.402 90.7169 271.977 91.3085 272.394 92.0752C272.81 92.8252 273.019 93.7335 273.019 94.8002V102.2H270.444V95.0002C270.444 93.9335 270.177 93.1502 269.644 92.6502C269.11 92.1335 268.377 91.8752 267.444 91.8752C266.377 91.8752 265.519 92.2252 264.869 92.9252C264.235 93.6252 263.919 94.6419 263.919 95.9752V102.2H261.344ZM282.374 102.55C281.124 102.55 280.033 102.292 279.099 101.775C278.166 101.242 277.433 100.5 276.899 99.5502C276.383 98.5835 276.124 97.4669 276.124 96.2002V95.9002C276.124 94.6169 276.383 93.5002 276.899 92.5502C277.416 91.5835 278.133 90.8419 279.049 90.3252C279.983 89.7919 281.058 89.5252 282.274 89.5252C283.458 89.5252 284.491 89.7919 285.374 90.3252C286.274 90.8419 286.974 91.5669 287.474 92.5002C287.974 93.4335 288.224 94.5252 288.224 95.7752V96.7502H278.749C278.783 97.8335 279.141 98.7002 279.824 99.3502C280.524 99.9835 281.391 100.3 282.424 100.3C283.391 100.3 284.116 100.084 284.599 99.6502C285.099 99.2169 285.483 98.7169 285.749 98.1502L287.874 99.2502C287.641 99.7169 287.299 100.209 286.849 100.725C286.416 101.242 285.841 101.675 285.124 102.025C284.408 102.375 283.491 102.55 282.374 102.55ZM278.774 94.7752H285.599C285.533 93.8419 285.199 93.1169 284.599 92.6002C283.999 92.0669 283.216 91.8002 282.249 91.8002C281.283 91.8002 280.491 92.0669 279.874 92.6002C279.274 93.1169 278.908 93.8419 278.774 94.7752ZM291.324 102.2V89.8752H293.849V91.7252H294.249C294.482 91.2252 294.899 90.7585 295.499 90.3252C296.099 89.8919 296.991 89.6752 298.174 89.6752C299.107 89.6752 299.932 89.8835 300.649 90.3002C301.382 90.7169 301.957 91.3085 302.374 92.0752C302.791 92.8252 302.999 93.7335 302.999 94.8002V102.2H300.424V95.0002C300.424 93.9335 300.157 93.1502 299.624 92.6502C299.091 92.1335 298.357 91.8752 297.424 91.8752C296.357 91.8752 295.499 92.2252 294.849 92.9252C294.216 93.6252 293.899 94.6419 293.899 95.9752V102.2H291.324ZM181.175 128.2V125.8H183.525V113.1H181.175V110.7H188.175C190.509 110.7 192.292 111.292 193.525 112.475C194.775 113.659 195.4 115.442 195.4 117.825V121.1C195.4 123.484 194.775 125.267 193.525 126.45C192.292 127.617 190.509 128.2 188.175 128.2H181.175ZM186.25 125.75H188.2C189.717 125.75 190.842 125.367 191.575 124.6C192.309 123.834 192.675 122.692 192.675 121.175V117.725C192.675 116.192 192.309 115.05 191.575 114.3C190.842 113.55 189.717 113.175 188.2 113.175H186.25V125.75ZM204.176 128.55C202.926 128.55 201.835 128.292 200.901 127.775C199.968 127.242 199.235 126.5 198.701 125.55C198.185 124.584 197.926 123.467 197.926 122.2V121.9C197.926 120.617 198.185 119.5 198.701 118.55C199.218 117.584 199.935 116.842 200.851 116.325C201.785 115.792 202.86 115.525 204.076 115.525C205.26 115.525 206.293 115.792 207.176 116.325C208.076 116.842 208.776 117.567 209.276 118.5C209.776 119.434 210.026 120.525 210.026 121.775V122.75H200.551C200.585 123.834 200.943 124.7 201.626 125.35C202.326 125.984 203.193 126.3 204.226 126.3C205.193 126.3 205.918 126.084 206.401 125.65C206.901 125.217 207.285 124.717 207.551 124.15L209.676 125.25C209.443 125.717 209.101 126.209 208.651 126.725C208.218 127.242 207.643 127.675 206.926 128.025C206.21 128.375 205.293 128.55 204.176 128.55ZM200.576 120.775H207.401C207.335 119.842 207.001 119.117 206.401 118.6C205.801 118.067 205.018 117.8 204.051 117.8C203.085 117.8 202.293 118.067 201.676 118.6C201.076 119.117 200.71 119.842 200.576 120.775ZM218.176 128.55C216.609 128.55 215.309 128.2 214.276 127.5C213.242 126.8 212.609 125.742 212.376 124.325L214.776 123.75C214.909 124.434 215.134 124.975 215.451 125.375C215.767 125.775 216.159 126.059 216.626 126.225C217.109 126.392 217.626 126.475 218.176 126.475C218.992 126.475 219.617 126.317 220.051 126C220.501 125.684 220.726 125.275 220.726 124.775C220.726 124.275 220.517 123.909 220.101 123.675C219.684 123.442 219.067 123.25 218.251 123.1L217.401 122.95C216.567 122.8 215.809 122.584 215.126 122.3C214.442 122.017 213.901 121.625 213.501 121.125C213.101 120.625 212.901 119.984 212.901 119.2C212.901 118.034 213.334 117.134 214.201 116.5C215.067 115.85 216.217 115.525 217.651 115.525C219.034 115.525 220.167 115.842 221.051 116.475C221.951 117.092 222.534 117.934 222.801 119L220.401 119.675C220.251 118.925 219.934 118.4 219.451 118.1C218.967 117.784 218.367 117.625 217.651 117.625C216.951 117.625 216.401 117.759 216.001 118.025C215.601 118.275 215.401 118.634 215.401 119.1C215.401 119.6 215.592 119.967 215.976 120.2C216.376 120.434 216.909 120.609 217.576 120.725L218.451 120.875C219.334 121.025 220.142 121.234 220.876 121.5C221.609 121.767 222.184 122.15 222.601 122.65C223.034 123.15 223.251 123.817 223.251 124.65C223.251 125.884 222.792 126.842 221.876 127.525C220.959 128.209 219.726 128.55 218.176 128.55ZM226.261 128.2V115.875H228.836V128.2H226.261ZM227.561 114.2C227.061 114.2 226.636 114.042 226.286 113.725C225.952 113.392 225.786 112.967 225.786 112.45C225.786 111.934 225.952 111.517 226.286 111.2C226.636 110.867 227.061 110.7 227.561 110.7C228.077 110.7 228.502 110.867 228.836 111.2C229.169 111.517 229.336 111.934 229.336 112.45C229.336 112.967 229.169 113.392 228.836 113.725C228.502 114.042 228.077 114.2 227.561 114.2ZM232.057 122.1V121.725C232.057 120.425 232.315 119.317 232.832 118.4C233.365 117.484 234.065 116.775 234.932 116.275C235.799 115.775 236.749 115.525 237.782 115.525C238.982 115.525 239.899 115.75 240.532 116.2C241.182 116.65 241.657 117.134 241.957 117.65H242.357V115.875H244.857V130.725C244.857 131.475 244.632 132.075 244.182 132.525C243.749 132.975 243.149 133.2 242.382 133.2H234.082V130.95H241.582C242.065 130.95 242.307 130.7 242.307 130.2V126.275H241.907C241.724 126.575 241.465 126.884 241.132 127.2C240.799 127.517 240.357 127.775 239.807 127.975C239.274 128.175 238.599 128.275 237.782 128.275C236.749 128.275 235.79 128.034 234.907 127.55C234.04 127.05 233.349 126.342 232.832 125.425C232.315 124.492 232.057 123.384 232.057 122.1ZM238.482 126.025C239.599 126.025 240.515 125.675 241.232 124.975C241.965 124.259 242.332 123.275 242.332 122.025V121.8C242.332 120.517 241.974 119.534 241.257 118.85C240.54 118.15 239.615 117.8 238.482 117.8C237.382 117.8 236.465 118.15 235.732 118.85C235.015 119.534 234.657 120.517 234.657 121.8V122.025C234.657 123.275 235.015 124.259 235.732 124.975C236.465 125.675 237.382 126.025 238.482 126.025ZM248.648 128.2V115.875H251.173V117.725H251.573C251.807 117.225 252.223 116.759 252.823 116.325C253.423 115.892 254.315 115.675 255.498 115.675C256.432 115.675 257.257 115.884 257.973 116.3C258.707 116.717 259.282 117.309 259.698 118.075C260.115 118.825 260.323 119.734 260.323 120.8V128.2H257.748V121C257.748 119.934 257.482 119.15 256.948 118.65C256.415 118.134 255.682 117.875 254.748 117.875C253.682 117.875 252.823 118.225 252.173 118.925C251.54 119.625 251.223 120.642 251.223 121.975V128.2H248.648ZM270.326 128.2V110.7H281.351V113.15H273.026V118.175H280.651V120.625H273.026V125.75H281.476V128.2H270.326ZM283.316 128.2L288.016 121.975L283.416 115.875H286.441L289.666 120.3H290.066L293.291 115.875H296.341L291.716 121.975L296.416 128.2H293.341L290.066 123.675H289.666L286.391 128.2H283.316ZM304.105 128.55C302.921 128.55 301.846 128.3 300.88 127.8C299.93 127.3 299.171 126.575 298.605 125.625C298.055 124.675 297.78 123.534 297.78 122.2V121.875C297.78 120.542 298.055 119.409 298.605 118.475C299.171 117.525 299.93 116.8 300.88 116.3C301.846 115.784 302.921 115.525 304.105 115.525C305.288 115.525 306.296 115.742 307.13 116.175C307.963 116.609 308.63 117.184 309.13 117.9C309.646 118.617 309.98 119.409 310.13 120.275L307.63 120.8C307.546 120.25 307.371 119.75 307.105 119.3C306.838 118.85 306.463 118.492 305.98 118.225C305.496 117.959 304.888 117.825 304.155 117.825C303.438 117.825 302.788 117.992 302.205 118.325C301.638 118.642 301.188 119.109 300.855 119.725C300.521 120.325 300.355 121.059 300.355 121.925V122.15C300.355 123.017 300.521 123.759 300.855 124.375C301.188 124.992 301.638 125.459 302.205 125.775C302.788 126.092 303.438 126.25 304.155 126.25C305.238 126.25 306.063 125.975 306.63 125.425C307.196 124.859 307.555 124.142 307.705 123.275L310.205 123.85C310.005 124.7 309.646 125.484 309.13 126.2C308.63 126.917 307.963 127.492 307.13 127.925C306.296 128.342 305.288 128.55 304.105 128.55ZM313.175 128.2V110.7H315.75V117.625H316.15C316.316 117.309 316.55 117 316.85 116.7C317.166 116.4 317.575 116.159 318.075 115.975C318.591 115.775 319.241 115.675 320.025 115.675C320.958 115.675 321.783 115.884 322.5 116.3C323.233 116.717 323.808 117.309 324.225 118.075C324.641 118.825 324.85 119.734 324.85 120.8V128.2H322.275V121C322.275 119.934 322.008 119.15 321.475 118.65C320.941 118.134 320.208 117.875 319.275 117.875C318.208 117.875 317.35 118.225 316.7 118.925C316.066 119.625 315.75 120.642 315.75 121.975V128.2H313.175ZM332.381 128.55C331.497 128.55 330.706 128.4 330.006 128.1C329.322 127.8 328.772 127.359 328.356 126.775C327.956 126.192 327.756 125.484 327.756 124.65C327.756 123.8 327.956 123.1 328.356 122.55C328.772 121.984 329.331 121.559 330.031 121.275C330.747 120.992 331.556 120.85 332.456 120.85H336.206V120.05C336.206 119.334 335.989 118.759 335.556 118.325C335.122 117.892 334.456 117.675 333.556 117.675C332.672 117.675 331.997 117.884 331.531 118.3C331.064 118.717 330.756 119.259 330.606 119.925L328.206 119.15C328.406 118.484 328.722 117.884 329.156 117.35C329.606 116.8 330.197 116.359 330.931 116.025C331.664 115.692 332.547 115.525 333.581 115.525C335.181 115.525 336.439 115.934 337.356 116.75C338.272 117.567 338.731 118.725 338.731 120.225V125.3C338.731 125.8 338.964 126.05 339.431 126.05H340.481V128.2H338.556C337.972 128.2 337.497 128.05 337.131 127.75C336.764 127.45 336.581 127.042 336.581 126.525V126.45H336.206C336.072 126.7 335.872 126.992 335.606 127.325C335.339 127.659 334.947 127.95 334.431 128.2C333.914 128.434 333.231 128.55 332.381 128.55ZM332.756 126.425C333.789 126.425 334.622 126.134 335.256 125.55C335.889 124.95 336.206 124.134 336.206 123.1V122.85H332.606C331.922 122.85 331.372 123 330.956 123.3C330.539 123.584 330.331 124.009 330.331 124.575C330.331 125.142 330.547 125.592 330.981 125.925C331.414 126.259 332.006 126.425 332.756 126.425ZM342.984 128.2V115.875H345.509V117.725H345.909C346.143 117.225 346.559 116.759 347.159 116.325C347.759 115.892 348.651 115.675 349.834 115.675C350.768 115.675 351.593 115.884 352.309 116.3C353.043 116.717 353.618 117.309 354.034 118.075C354.451 118.825 354.659 119.734 354.659 120.8V128.2H352.084V121C352.084 119.934 351.818 119.15 351.284 118.65C350.751 118.134 350.018 117.875 349.084 117.875C348.018 117.875 347.159 118.225 346.509 118.925C345.876 119.625 345.559 120.642 345.559 121.975V128.2H342.984ZM357.765 122.1V121.725C357.765 120.425 358.023 119.317 358.54 118.4C359.073 117.484 359.773 116.775 360.64 116.275C361.507 115.775 362.457 115.525 363.49 115.525C364.69 115.525 365.607 115.75 366.24 116.2C366.89 116.65 367.365 117.134 367.665 117.65H368.065V115.875H370.565V130.725C370.565 131.475 370.34 132.075 369.89 132.525C369.457 132.975 368.857 133.2 368.09 133.2H359.79V130.95H367.29C367.773 130.95 368.015 130.7 368.015 130.2V126.275H367.615C367.432 126.575 367.173 126.884 366.84 127.2C366.507 127.517 366.065 127.775 365.515 127.975C364.982 128.175 364.307 128.275 363.49 128.275C362.457 128.275 361.498 128.034 360.615 127.55C359.748 127.05 359.057 126.342 358.54 125.425C358.023 124.492 357.765 123.384 357.765 122.1ZM364.19 126.025C365.307 126.025 366.223 125.675 366.94 124.975C367.673 124.259 368.04 123.275 368.04 122.025V121.8C368.04 120.517 367.682 119.534 366.965 118.85C366.248 118.15 365.323 117.8 364.19 117.8C363.09 117.8 362.173 118.15 361.44 118.85C360.723 119.534 360.365 120.517 360.365 121.8V122.025C360.365 123.275 360.723 124.259 361.44 124.975C362.173 125.675 363.09 126.025 364.19 126.025ZM380.006 128.55C378.756 128.55 377.665 128.292 376.731 127.775C375.798 127.242 375.065 126.5 374.531 125.55C374.015 124.584 373.756 123.467 373.756 122.2V121.9C373.756 120.617 374.015 119.5 374.531 118.55C375.048 117.584 375.765 116.842 376.681 116.325C377.615 115.792 378.69 115.525 379.906 115.525C381.09 115.525 382.123 115.792 383.006 116.325C383.906 116.842 384.606 117.567 385.106 118.5C385.606 119.434 385.856 120.525 385.856 121.775V122.75H376.381C376.415 123.834 376.773 124.7 377.456 125.35C378.156 125.984 379.023 126.3 380.056 126.3C381.023 126.3 381.748 126.084 382.231 125.65C382.731 125.217 383.115 124.717 383.381 124.15L385.506 125.25C385.273 125.717 384.931 126.209 384.481 126.725C384.048 127.242 383.473 127.675 382.756 128.025C382.04 128.375 381.123 128.55 380.006 128.55ZM376.406 120.775H383.231C383.165 119.842 382.831 119.117 382.231 118.6C381.631 118.067 380.848 117.8 379.881 117.8C378.915 117.8 378.123 118.067 377.506 118.6C376.906 119.117 376.54 119.842 376.406 120.775ZM187.775 154.55C186.459 154.55 185.292 154.317 184.275 153.85C183.259 153.384 182.459 152.7 181.875 151.8C181.309 150.884 181.025 149.775 181.025 148.475V147.85H183.7V148.475C183.7 149.709 184.067 150.634 184.8 151.25C185.55 151.867 186.542 152.175 187.775 152.175C189.025 152.175 189.967 151.917 190.6 151.4C191.234 150.867 191.55 150.184 191.55 149.35C191.55 148.8 191.4 148.35 191.1 148C190.8 147.65 190.375 147.375 189.825 147.175C189.275 146.959 188.617 146.759 187.85 146.575L186.925 146.35C185.809 146.084 184.834 145.759 184 145.375C183.184 144.975 182.55 144.45 182.1 143.8C181.65 143.15 181.425 142.317 181.425 141.3C181.425 140.267 181.675 139.384 182.175 138.65C182.692 137.917 183.4 137.35 184.3 136.95C185.2 136.55 186.259 136.35 187.475 136.35C188.692 136.35 189.775 136.559 190.725 136.975C191.692 137.392 192.45 138.009 193 138.825C193.55 139.642 193.825 140.667 193.825 141.9V142.8H191.15V141.9C191.15 141.15 190.992 140.542 190.675 140.075C190.375 139.609 189.95 139.267 189.4 139.05C188.85 138.834 188.209 138.725 187.475 138.725C186.409 138.725 185.575 138.95 184.975 139.4C184.392 139.834 184.1 140.442 184.1 141.225C184.1 141.759 184.225 142.2 184.475 142.55C184.742 142.884 185.125 143.159 185.625 143.375C186.125 143.592 186.75 143.784 187.5 143.95L188.425 144.175C189.559 144.425 190.559 144.75 191.425 145.15C192.292 145.534 192.975 146.059 193.475 146.725C193.975 147.392 194.225 148.25 194.225 149.3C194.225 150.35 193.959 151.267 193.425 152.05C192.909 152.834 192.167 153.45 191.2 153.9C190.234 154.334 189.092 154.55 187.775 154.55ZM201.76 154.2C201.01 154.2 200.41 153.975 199.96 153.525C199.526 153.075 199.31 152.475 199.31 151.725V144.05H195.91V141.875H199.31V137.8H201.885V141.875H205.56V144.05H201.885V151.275C201.885 151.775 202.118 152.025 202.585 152.025H205.16V154.2H201.76ZM213.31 154.425C212.376 154.425 211.543 154.217 210.81 153.8C210.076 153.384 209.501 152.792 209.085 152.025C208.668 151.259 208.46 150.342 208.46 149.275V141.875H211.035V149.1C211.035 150.167 211.301 150.959 211.835 151.475C212.368 151.975 213.11 152.225 214.06 152.225C215.11 152.225 215.951 151.875 216.585 151.175C217.235 150.459 217.56 149.434 217.56 148.1V141.875H220.135V154.2H217.61V152.35H217.21C216.976 152.85 216.56 153.325 215.96 153.775C215.36 154.209 214.476 154.425 213.31 154.425ZM229.041 154.55C228.025 154.55 227.083 154.3 226.216 153.8C225.35 153.3 224.65 152.584 224.116 151.65C223.6 150.7 223.341 149.559 223.341 148.225V147.85C223.341 146.534 223.6 145.4 224.116 144.45C224.633 143.5 225.325 142.775 226.191 142.275C227.058 141.775 228.008 141.525 229.041 141.525C229.841 141.525 230.508 141.625 231.041 141.825C231.591 142.025 232.041 142.284 232.391 142.6C232.741 142.9 233.008 143.217 233.191 143.55H233.591V136.7H236.166V154.2H233.641V152.45H233.241C232.925 152.984 232.441 153.467 231.791 153.9C231.158 154.334 230.241 154.55 229.041 154.55ZM229.766 152.3C230.883 152.3 231.8 151.942 232.516 151.225C233.25 150.509 233.616 149.484 233.616 148.15V147.925C233.616 146.609 233.258 145.592 232.541 144.875C231.825 144.159 230.9 143.8 229.766 143.8C228.666 143.8 227.75 144.159 227.016 144.875C226.3 145.592 225.941 146.609 225.941 147.925V148.15C225.941 149.484 226.3 150.509 227.016 151.225C227.75 151.942 228.666 152.3 229.766 152.3ZM239.957 154.2V141.875H242.532V154.2H239.957ZM241.257 140.2C240.757 140.2 240.332 140.042 239.982 139.725C239.649 139.392 239.482 138.967 239.482 138.45C239.482 137.934 239.649 137.517 239.982 137.2C240.332 136.867 240.757 136.7 241.257 136.7C241.774 136.7 242.199 136.867 242.532 137.2C242.865 137.517 243.032 137.934 243.032 138.45C243.032 138.967 242.865 139.392 242.532 139.725C242.199 140.042 241.774 140.2 241.257 140.2ZM252.128 154.55C250.895 154.55 249.795 154.3 248.828 153.8C247.878 153.284 247.128 152.55 246.578 151.6C246.028 150.65 245.753 149.525 245.753 148.225V147.85C245.753 146.55 246.028 145.434 246.578 144.5C247.128 143.55 247.878 142.817 248.828 142.3C249.795 141.784 250.895 141.525 252.128 141.525C253.362 141.525 254.462 141.784 255.428 142.3C256.395 142.817 257.153 143.55 257.703 144.5C258.253 145.434 258.528 146.55 258.528 147.85V148.225C258.528 149.525 258.253 150.65 257.703 151.6C257.153 152.55 256.395 153.284 255.428 153.8C254.462 154.3 253.362 154.55 252.128 154.55ZM252.128 152.25C253.262 152.25 254.178 151.892 254.878 151.175C255.595 150.442 255.953 149.434 255.953 148.15V147.925C255.953 146.642 255.603 145.642 254.903 144.925C254.203 144.192 253.278 143.825 252.128 143.825C251.012 143.825 250.095 144.192 249.378 144.925C248.678 145.642 248.328 146.642 248.328 147.925V148.15C248.328 149.434 248.678 150.442 249.378 151.175C250.095 151.892 251.012 152.25 252.128 152.25Z" fill="#338BFF"/>
<path d="M55.4707 0C62.4648 0.0291439 68.5993 1.44255 73.874 4.24023C79.1487 7.03792 83.2578 10.9139 86.2012 15.8682C89.1736 20.8224 90.6602 26.5343 90.6602 33.0039C90.6602 37.0926 90.0816 40.881 88.9258 44.3691C88.965 44.267 89.0027 44.1642 89.043 44.0625C90.7332 39.866 93.1081 36.2377 96.168 33.1777C99.257 30.1469 102.9 27.7869 107.097 26.0967C111.322 24.4356 115.956 23.6045 120.997 23.6045C126.009 23.6045 130.585 24.4208 134.723 26.0527C138.89 27.7139 142.489 30.0018 145.52 32.916C148.55 35.8302 150.897 39.2248 152.558 43.1006C154.219 47.0057 155.05 51.2173 155.05 55.7344C155.05 59.9306 154.292 63.5149 152.776 66.4873C151.29 69.489 149.09 71.8647 146.176 73.6133C143.291 75.391 139.721 76.5418 135.466 77.0664V77.5469H154V91.1865H134.374V102.506H126.374V145.695H134.374V157.279H101.545C94.551 157.25 88.4162 155.837 83.1416 153.039C77.8671 150.241 73.7587 146.365 70.8154 141.411C67.8429 136.457 66.3564 130.745 66.3564 124.275C66.3564 117.718 67.8429 111.933 70.8154 106.921C73.7587 101.909 77.8672 97.9889 83.1416 95.1621C88.4162 92.3353 94.551 90.9219 101.545 90.9219H111.666C106.987 89.8618 102.84 87.9703 99.2275 85.2412C95.2061 82.2104 92.0878 78.349 89.873 73.6572C87.6583 68.9944 86.5508 63.7336 86.5508 57.876C86.5508 53.5461 87.1716 49.5208 88.4111 45.7998C87.7989 47.3841 87.0636 48.9041 86.2012 50.3584C83.2578 55.3709 79.1487 59.2904 73.874 62.1172C70.0186 64.1834 65.7037 65.4938 60.9297 66.0498H66.3564V130.659H54.7725V122.659H11.584V130.659H0V66.8369H22.8623V80.4756H11.584V109.021H27.6709V87.3389H38.2051V109.021H54.7725V79.6885H43.4941V66.3574H22.6426V54.7734H30.6416V11.584H22.6426V0H55.4707ZM101.72 102.506C97.4945 102.506 93.8083 103.424 90.6611 105.26C87.4847 107.096 85.022 109.646 83.2734 112.91C81.4958 116.203 80.6064 119.992 80.6064 124.275C80.6064 128.501 81.4958 132.217 83.2734 135.423C85.0219 138.657 87.4848 141.179 90.6611 142.985C93.8083 144.792 97.4945 145.695 101.72 145.695H112.735V102.506H101.72ZM120.997 37.8994C117.85 37.8994 114.965 38.3801 112.342 39.3418C109.719 40.3326 107.446 41.7017 105.522 43.4502C103.628 45.2279 102.171 47.3411 101.151 49.7891C100.131 52.237 99.6211 54.9326 99.6211 57.876C99.6211 61.2565 100.277 64.2876 101.589 66.9688C102.929 69.6788 104.809 71.9226 107.228 73.7002C109.646 75.4778 112.487 76.6731 115.751 77.2852L113.45 90.9219H127.467V77.5469C131.896 76.4103 135.422 74.0937 138.045 70.5967C140.668 67.0996 141.979 62.9028 141.979 58.0068C141.979 54.0436 141.09 50.5463 139.312 47.5156C137.564 44.5141 135.101 42.1539 131.925 40.4346C128.778 38.7444 125.135 37.8994 120.997 37.8994ZM44.2803 54.7734H55.2959C59.5215 54.7734 63.2081 53.8555 66.3555 52.0195C69.5319 50.1836 71.9947 47.6331 73.7432 44.3691C75.5207 41.0761 76.4092 37.2877 76.4092 33.0039C76.4092 28.7782 75.5208 25.0621 73.7432 21.8564C71.9947 18.6217 69.5319 16.1007 66.3555 14.2939C63.2082 12.4872 59.5214 11.584 55.2959 11.584H44.2803V54.7734Z" fill="#338BFF"/>
</svg>
